# xmcd CD Database Entry
#
# Track frame offsets:
# 150
# 17890
# 47703
# 66040
# 101798
# 130590
# 142860
# 158875
# 174105
# 189115
# 207223
# 240268
#
# Disc length: 3517 seconds
#
# Revision: 2
# Processed by: cddbd v1.4PL0 Copyright (c) Steve Scherf et al.
# Submitted via: tcd 2.0b
#
DISCID=900dbb0c
DTITLE=Bach, J. S. - Violin Concertos - Pinchas Zukerman
DYEAR=1900
DGENRE=
TTITLE0=Concerto, BMV 1041 in A Minor
TTITLE1=Concerto, BMV 1041 in A Minor
TTITLE2=Concerto, BMV 1041 in A Minor
TTITLE3=Concerto, BMV 1042 in E Major
TTITLE4=Concerto, BMV 1042 in E Major
TTITLE5=Concerto, BMV 1042 in E Major
TTITLE6=Concerto, BMV 1056 in G Minor
TTITLE7=Concerto, BMV 1056 in G Minor
TTITLE8=Concerto, BMV 1056 in G Minor
TTITLE9=Double Concerto, BMV 1043 in D Minor
TTITLE10=Double Concerto, BMV 1043 in D Minor
TTITLE11=Double Concerto, BMV 1043 in D Minor
EXTD=
EXTT0=
EXTT1=
EXTT2=
EXTT3=
EXTT4=
EXTT5=
EXTT6=
EXTT7=
EXTT8=
EXTT9=
EXTT10=
EXTT11=
PLAYORDER=
